<svg width="27" height="25" viewBox="0 0 27 25" fill="none" xmlns="http://www.w3.org/2000/svg">
<path fill-rule="evenodd" clip-rule="evenodd" d="M24.4177 4.78277C24.7682 3.31854 23.2976 1.99729 21.7054 2.42396L4.09181 7.16952L3.92183 7.22184C2.26854 7.79795 2.01487 9.92998 3.5634 10.8127L10.8484 14.9646L15.2311 21.6876L15.3296 21.8264C16.357 23.1592 18.632 22.8364 19.1507 21.2208L24.3765 4.92961L24.4177 4.78277ZM22.2577 3.90953C22.5826 3.87723 22.8602 4.16983 22.7591 4.48401L17.5331 20.7757L17.4988 20.8556C17.3355 21.153 16.8734 21.1832 16.6759 20.8802L12.5269 14.5167L18.4359 9.01008L18.5173 8.9222C18.7613 8.6156 18.7325 8.18166 18.432 7.90523L18.3371 7.82988C18.0059 7.60396 17.5373 7.63062 17.2387 7.90891L11.3378 13.4083L4.44799 9.48204L4.3736 9.43032C4.10604 9.20463 4.1961 8.76847 4.56273 8.66994L22.1757 3.92455L22.2577 3.90953Z" fill="#503106"/>
</svg>
