<svg width="27" height="27" viewBox="0 0 27 27" fill="none" xmlns="http://www.w3.org/2000/svg">
<path fill-rule="evenodd" clip-rule="evenodd" d="M13.874 2.17969H12.5158C11.7509 2.17969 11.0175 2.47564 10.478 3.00207C9.99971 3.46868 9.70716 4.08387 9.65076 4.73849L9.6414 4.94993C9.63097 5.63841 9.06974 6.17552 8.38088 6.17545C8.22466 6.17384 8.06241 6.1385 7.91304 6.07194L7.76652 5.9961C6.413 5.2424 4.65317 5.70407 3.85907 7.04231L3.14505 8.18155C2.38581 9.46054 2.76027 11.0673 3.98587 11.8949L4.15632 12.0011C4.57642 12.2374 4.81657 12.6413 4.81657 13.0784C4.81657 13.4803 4.61317 13.8562 4.27396 14.0842L4.15816 14.1546C2.8884 14.8671 2.38809 16.4397 3.02636 17.7479L3.11964 17.922L3.82052 19.0971C4.18482 19.7356 4.80909 20.2167 5.54742 20.4204C6.20183 20.601 6.90022 20.5511 7.51938 20.2807L7.71516 20.1858C8.04467 20.0008 8.3851 19.9564 8.7046 20.0395C9.0241 20.1225 9.29622 20.326 9.46045 20.6047C9.551 20.7531 9.60415 20.9061 9.62313 21.0646L9.63247 21.2255C9.63085 22.7229 10.9225 23.9771 12.5158 23.9771H13.8743C15.3788 23.9771 16.6275 22.8549 16.7497 21.4065L16.7586 21.2195C16.7577 20.8577 16.8895 20.5466 17.1254 20.3175C17.3613 20.0885 17.6818 19.9605 18.0154 19.962C18.1687 19.9662 18.3372 20.0035 18.4934 20.0713L18.643 20.1461C19.9059 20.8539 21.5607 20.4903 22.413 19.3003L22.5223 19.1348L23.2477 17.9615C23.6383 17.3107 23.744 16.546 23.5468 15.8281C23.372 15.1918 22.9714 14.6366 22.4168 14.2599L22.2332 14.1457C21.9141 13.9665 21.7038 13.7005 21.618 13.3883C21.5323 13.0761 21.5783 12.7437 21.7458 12.4645C21.8385 12.3074 21.9618 12.1766 22.1098 12.0764L22.3927 11.9038C23.5385 11.1485 23.9676 9.66185 23.3645 8.41202L23.3019 8.29031C23.2884 8.25856 23.2727 8.22761 23.255 8.19766L22.5807 7.06151C21.8304 5.79716 20.2082 5.30649 18.8555 5.92393L18.6754 6.01427C18.3522 6.1979 18.0108 6.24432 17.6895 6.16331C17.3682 6.0823 17.0933 5.88052 16.9254 5.60247C16.8392 5.46146 16.786 5.30848 16.7671 5.14996L16.7577 4.989C16.7814 4.30458 16.4873 3.57124 15.9439 3.02838C15.4004 2.48552 14.6537 2.17938 13.874 2.17969ZM12.5158 3.75753H13.8743C14.2152 3.7574 14.5413 3.8911 14.7787 4.12819C15.016 4.36527 15.1444 4.68555 15.1347 5.01606L15.1491 5.29076C15.1982 5.71069 15.3252 6.07601 15.5258 6.4042C15.9098 7.04012 16.5421 7.5042 17.2811 7.69051C18.0202 7.87683 18.8051 7.77007 19.463 7.39379L19.5764 7.33766L19.6985 7.29019C20.2355 7.11519 20.8685 7.33668 21.1727 7.84928L21.8158 8.93389L21.8297 8.96444L21.9075 9.10999C22.1677 9.65078 21.9502 10.3349 21.3871 10.6547L21.2104 10.7628C20.8355 11.0156 20.5479 11.3206 20.3387 11.6753C19.9565 12.3123 19.8507 13.0769 20.0479 13.7949C20.2272 14.4475 20.6433 15.0126 21.2158 15.3884L21.5152 15.5722C21.7265 15.7166 21.9007 15.958 21.9767 16.2347C22.0624 16.5468 22.0164 16.8793 21.8489 17.1584L21.1403 18.3051L21.0606 18.4261C20.7327 18.8828 20.0858 19.0524 19.5404 18.82L19.1929 18.6477C18.8054 18.4783 18.4263 18.3945 18.041 18.3845C17.2559 18.3806 16.519 18.675 15.9764 19.2018C15.4338 19.7287 15.1306 20.4442 15.1343 21.1893L15.1281 21.3081C15.0769 21.9089 14.5312 22.3992 13.8743 22.3992H12.5158C11.8664 22.3992 11.3317 21.9221 11.2633 21.3091L11.2411 20.9238C11.192 20.5038 11.065 20.1385 10.8644 19.8103C10.4915 19.1772 9.86284 18.7071 9.12468 18.5152C8.38652 18.3234 7.60003 18.4259 6.94003 18.7998L6.82047 18.8567C6.5825 18.9597 6.27747 18.9816 5.99167 18.9027C5.66922 18.8137 5.39658 18.6036 5.23408 18.3189L4.54209 17.1598L4.48019 17.0437C4.21806 16.5049 4.43571 15.8208 4.9997 15.504L5.17104 15.3994C5.97595 14.8593 6.44158 13.9988 6.44158 13.0784C6.44158 12.1443 5.96257 11.2765 5.17297 10.7581L4.88626 10.5818C4.37965 10.2389 4.21602 9.53678 4.5432 8.98544L5.25723 7.84619C5.6139 7.24556 6.38248 7.04394 6.98523 7.3793L7.19678 7.48763C7.59189 7.66492 7.97934 7.74929 8.37236 7.75326C9.89703 7.75345 11.1438 6.61641 11.2575 5.16757L11.2723 4.83527C11.2946 4.58547 11.4218 4.31797 11.6298 4.1151C11.8644 3.88621 12.1832 3.75753 12.5158 3.75753ZM13.2001 9.51649C11.1741 9.51649 9.53169 11.1112 9.53169 13.0784C9.53169 15.0456 11.1741 16.6403 13.2001 16.6403C15.226 16.6403 16.8684 15.0456 16.8684 13.0784C16.8684 11.1112 15.226 9.51649 13.2001 9.51649ZM13.2001 11.0943C14.3286 11.0943 15.2434 11.9826 15.2434 13.0784C15.2434 14.1741 14.3286 15.0624 13.2001 15.0624C12.0715 15.0624 11.1567 14.1741 11.1567 13.0784C11.1567 11.9826 12.0715 11.0943 13.2001 11.0943Z" fill="#503106"/>
</svg>
